<svg xmlns="http://www.w3.org/2000/svg" viewBox="0 0 220 180" fill="none">
  <ellipse cx="110" cy="166" rx="78" ry="10" fill="#0D47A1" opacity=".08"/>
  <rect x="50" y="84" width="120" height="78" rx="10" fill="#0D47A1"/>
  <rect x="42" y="62" width="136" height="28" rx="9" fill="#1559b8"/>
  <rect x="100" y="62" width="20" height="100" fill="#FFC107"/>
  <path d="M110 60c-20-24-46-4-24 10zM110 60c20-24 46-4 24 10z" fill="#FFC107"/>
  <circle cx="110" cy="60" r="9" fill="#FFD54F"/>
  <path d="M36 38l3.4 9.4L49 51l-9.6 3.6L36 64l-3.4-9.4L23 51l9.6-3.6z" fill="#FFC107"/>
  <path d="M184 28l2.6 7.2L194 38l-7.4 2.8L184 48l-2.6-7.2L174 38l7.4-2.8z" fill="#FFC107"/>
  <circle cx="186" cy="92" r="4" fill="#FFC107"/>
  <circle cx="30" cy="100" r="3.5" fill="#FFC107"/>
</svg>
